<svg width="820" height="280" viewBox="0 0 820 280" xmlns="http://www.w3.org/2000/svg">
  <defs>
    <linearGradient id="g1" x1="0" y1="0" x2="1" y2="0"><stop offset="0%" stop-color="#5CB8B8"/><stop offset="100%" stop-color="#4A9A9A"/></linearGradient>
    <linearGradient id="g2" x1="0" y1="0" x2="1" y2="0"><stop offset="0%" stop-color="#C97B5E"/><stop offset="100%" stop-color="#A8624A"/></linearGradient>
    <linearGradient id="g3" x1="0" y1="0" x2="1" y2="0"><stop offset="0%" stop-color="#E9A14B"/><stop offset="100%" stop-color="#D4944A"/></linearGradient>
    <linearGradient id="g4" x1="0" y1="0" x2="1" y2="0"><stop offset="0%" stop-color="#7DB4E8"/><stop offset="100%" stop-color="#5A96CC"/></linearGradient>
    <linearGradient id="g5" x1="0" y1="0" x2="1" y2="0"><stop offset="0%" stop-color="#A78BFA"/><stop offset="100%" stop-color="#8B6FE0"/></linearGradient>
    <linearGradient id="g6" x1="0" y1="0" x2="1" y2="0"><stop offset="0%" stop-color="#6A7A8A"/><stop offset="100%" stop-color="#556270"/></linearGradient>
  </defs>

  <rect width="820" height="280" rx="10" fill="#0d1117"/>
  <rect x="0" y="0" width="820" height="1" rx="0.5" fill="#4A9A9A" opacity="0.3"/>

  <!-- Header -->
  <text x="28" y="32" fill="#556270" font-family="monospace" font-size="10" letter-spacing="2">LANGUAGES × WHAT THEY SHIP</text>

  <!-- Row 1: Python -->
  <text x="28" y="68" fill="#7a8a96" font-family="'Segoe UI',system-ui,sans-serif" font-size="13" font-weight="500">Python</text>
  <rect x="110" y="55" width="420" height="20" rx="4" fill="url(#g1)" opacity="0.85"/>
  <text x="540" y="69" fill="#556270" font-family="monospace" font-size="11">automation · DICOM · OCR · tooling · PyPI</text>

  <!-- Row 2: Rust -->
  <text x="28" y="106" fill="#7a8a96" font-family="'Segoe UI',system-ui,sans-serif" font-size="13" font-weight="500">Rust</text>
  <rect x="110" y="93" width="240" height="20" rx="4" fill="url(#g2)" opacity="0.85"/>
  <text x="360" y="107" fill="#556270" font-family="monospace" font-size="11">DICOM engine (100–400×) · mdview</text>

  <!-- Row 3: Zig -->
  <text x="28" y="144" fill="#7a8a96" font-family="'Segoe UI',system-ui,sans-serif" font-size="13" font-weight="500">Zig</text>
  <rect x="110" y="131" width="200" height="20" rx="4" fill="url(#g3)" opacity="0.85"/>
  <text x="320" y="145" fill="#556270" font-family="monospace" font-size="11">mdview-zig · ~285KB · 3 platforms</text>

  <!-- Row 4: TypeScript -->
  <text x="28" y="182" fill="#7a8a96" font-family="'Segoe UI',system-ui,sans-serif" font-size="13" font-weight="500">TypeScript</text>
  <rect x="110" y="169" width="180" height="20" rx="4" fill="url(#g4)" opacity="0.85"/>
  <text x="300" y="183" fill="#556270" font-family="monospace" font-size="11">portfolio · vault-sync plugin · React</text>

  <!-- Row 5: Swift -->
  <text x="28" y="220" fill="#7a8a96" font-family="'Segoe UI',system-ui,sans-serif" font-size="13" font-weight="500">Swift</text>
  <rect x="110" y="207" width="150" height="20" rx="4" fill="url(#g5)" opacity="0.85"/>
  <text x="270" y="221" fill="#556270" font-family="monospace" font-size="11">steddi · SwiftUI · MapKit · CarPlay</text>

  <!-- Row 6: C / C++ / C# -->
  <text x="28" y="258" fill="#7a8a96" font-family="'Segoe UI',system-ui,sans-serif" font-size="13" font-weight="500">C / C++ / C#</text>
  <rect x="110" y="245" width="130" height="20" rx="4" fill="url(#g6)" opacity="0.85"/>
  <text x="250" y="259" fill="#556270" font-family="monospace" font-size="11">OCR pipelines · coil internals · protocol tooling</text>
</svg>
