<svg width="820" height="664" viewBox="0 0 820 664" xmlns="http://www.w3.org/2000/svg">
  <rect width="820" height="664" rx="10" fill="#0d1117"/>
  <rect x="0" y="0" width="820" height="1" rx="0.5" fill="#4A9A9A" opacity="0.3"/>
  <text x="28" y="28" fill="#556270" font-family="monospace" font-size="10" letter-spacing="2">RECENT ACTIVITY</text>
  <line x1="160" y1="44" x2="160" y2="640" stroke="#1a1f26" stroke-width="1"/>
  <text x="160" y="38" fill="#3a4450" font-family="monospace" font-size="9" text-anchor="middle">OCT</text>
  <line x1="265" y1="44" x2="265" y2="640" stroke="#1a1f26" stroke-width="1"/>
  <text x="265" y="38" fill="#3a4450" font-family="monospace" font-size="9" text-anchor="middle">NOV</text>
  <line x1="366" y1="44" x2="366" y2="640" stroke="#1a1f26" stroke-width="1"/>
  <text x="366" y="38" fill="#3a4450" font-family="monospace" font-size="9" text-anchor="middle">DEC</text>
  <line x1="471" y1="44" x2="471" y2="640" stroke="#1a1f26" stroke-width="1"/>
  <text x="471" y="38" fill="#3a4450" font-family="monospace" font-size="9" text-anchor="middle">JAN</text>
  <line x1="576" y1="44" x2="576" y2="640" stroke="#1a1f26" stroke-width="1"/>
  <text x="576" y="38" fill="#3a4450" font-family="monospace" font-size="9" text-anchor="middle">FEB</text>
  <line x1="670" y1="44" x2="670" y2="640" stroke="#1a1f26" stroke-width="1"/>
  <text x="670" y="38" fill="#3a4450" font-family="monospace" font-size="9" text-anchor="middle">MAR</text>
  <line x1="775" y1="44" x2="775" y2="640" stroke="#1a1f26" stroke-width="1"/>
  <text x="775" y="38" fill="#3a4450" font-family="monospace" font-size="9" text-anchor="middle">APR</text>
  <line x1="792" y1="44" x2="792" y2="640" stroke="#4A9A9A" stroke-width="1" opacity="0.3"/>
  <text x="148" y="70" fill="#7a8a96" font-family="'Segoe UI',system-ui,sans-serif" font-size="12" text-anchor="end">nathannncurtis</text>
  <line x1="160" y1="66" x2="792" y2="66" stroke="#151a20" stroke-width="1"/>
  <circle cx="789" cy="66" r="5" fill="#556270" opacity="0.9"/>
  <text x="148" y="98" fill="#7a8a96" font-family="'Segoe UI',system-ui,sans-serif" font-size="12" text-anchor="end">nathancurtis.to</text>
  <line x1="160" y1="94" x2="792" y2="94" stroke="#151a20" stroke-width="1"/>
  <circle cx="789" cy="94" r="5" fill="#7DB4E8" opacity="0.9"/>
  <text x="799" y="97.5" fill="#3a4450" font-family="monospace" font-size="9">TypeScript</text>
  <text x="148" y="126" fill="#7a8a96" font-family="'Segoe UI',system-ui,sans-serif" font-size="12" text-anchor="end">Study-Aggregator</text>
  <line x1="160" y1="122" x2="792" y2="122" stroke="#151a20" stroke-width="1"/>
  <circle cx="789" cy="122" r="5" fill="#C97B5E" opacity="0.9"/>
  <text x="799" y="125.5" fill="#3a4450" font-family="monospace" font-size="9">Rust</text>
  <text x="148" y="154" fill="#7a8a96" font-family="'Segoe UI',system-ui,sans-serif" font-size="12" text-anchor="end">mdview-zig</text>
  <line x1="160" y1="150" x2="792" y2="150" stroke="#151a20" stroke-width="1"/>
  <circle cx="789" cy="150" r="5" fill="#E9A14B" opacity="0.9"/>
  <text x="799" y="153.5" fill="#3a4450" font-family="monospace" font-size="9">Zig</text>
  <text x="148" y="182" fill="#7a8a96" font-family="'Segoe UI',system-ui,sans-serif" font-size="12" text-anchor="end">mdview</text>
  <line x1="160" y1="178" x2="792" y2="178" stroke="#151a20" stroke-width="1"/>
  <circle cx="785" cy="178" r="5" fill="#C97B5E" opacity="0.9"/>
  <text x="795" y="181.5" fill="#3a4450" font-family="monospace" font-size="9">Rust</text>
  <text x="148" y="210" fill="#7a8a96" font-family="'Segoe UI',system-ui,sans-serif" font-size="12" text-anchor="end">ocr</text>
  <line x1="160" y1="206" x2="792" y2="206" stroke="#151a20" stroke-width="1"/>
  <circle cx="785" cy="206" r="5" fill="#6A7A8A" opacity="0.9"/>
  <text x="795" y="209.5" fill="#3a4450" font-family="monospace" font-size="9">C++</text>
  <text x="148" y="238" fill="#7a8a96" font-family="'Segoe UI',system-ui,sans-serif" font-size="12" text-anchor="end">reducer</text>
  <line x1="160" y1="234" x2="792" y2="234" stroke="#151a20" stroke-width="1"/>
  <circle cx="785" cy="234" r="5" fill="#4A9A9A" opacity="0.9"/>
  <text x="795" y="237.5" fill="#3a4450" font-family="monospace" font-size="9">Python</text>
  <text x="148" y="266" fill="#7a8a96" font-family="'Segoe UI',system-ui,sans-serif" font-size="12" text-anchor="end">obsidian-vault-sy…</text>
  <line x1="160" y1="262" x2="792" y2="262" stroke="#151a20" stroke-width="1"/>
  <circle cx="785" cy="262" r="5" fill="#7DB4E8" opacity="0.9"/>
  <text x="795" y="265.5" fill="#3a4450" font-family="monospace" font-size="9">TypeScript</text>
  <text x="148" y="294" fill="#7a8a96" font-family="'Segoe UI',system-ui,sans-serif" font-size="12" text-anchor="end">cheat</text>
  <line x1="160" y1="290" x2="792" y2="290" stroke="#151a20" stroke-width="1"/>
  <circle cx="785" cy="290" r="5" fill="#4A9A9A" opacity="0.9"/>
  <text x="795" y="293.5" fill="#3a4450" font-family="monospace" font-size="9">Python</text>
  <text x="148" y="322" fill="#7a8a96" font-family="'Segoe UI',system-ui,sans-serif" font-size="12" text-anchor="end">AcroKiller</text>
  <line x1="160" y1="318" x2="792" y2="318" stroke="#151a20" stroke-width="1"/>
  <circle cx="785" cy="318" r="5" fill="#4A9A9A" opacity="0.9"/>
  <text x="795" y="321.5" fill="#3a4450" font-family="monospace" font-size="9">Python</text>
  <text x="148" y="350" fill="#7a8a96" font-family="'Segoe UI',system-ui,sans-serif" font-size="12" text-anchor="end">md-pdf-cli</text>
  <line x1="160" y1="346" x2="792" y2="346" stroke="#151a20" stroke-width="1"/>
  <circle cx="785" cy="346" r="5" fill="#4A9A9A" opacity="0.9"/>
  <text x="795" y="349.5" fill="#3a4450" font-family="monospace" font-size="9">Python</text>
  <text x="148" y="378" fill="#7a8a96" font-family="'Segoe UI',system-ui,sans-serif" font-size="12" text-anchor="end">File-Processor</text>
  <line x1="160" y1="374" x2="792" y2="374" stroke="#151a20" stroke-width="1"/>
  <circle cx="785" cy="374" r="5" fill="#4A9A9A" opacity="0.9"/>
  <text x="795" y="377.5" fill="#3a4450" font-family="monospace" font-size="9">Python</text>
  <text x="148" y="406" fill="#7a8a96" font-family="'Segoe UI',system-ui,sans-serif" font-size="12" text-anchor="end">Feather</text>
  <line x1="160" y1="402" x2="792" y2="402" stroke="#151a20" stroke-width="1"/>
  <circle cx="785" cy="402" r="5" fill="#4A9A9A" opacity="0.9"/>
  <text x="795" y="405.5" fill="#3a4450" font-family="monospace" font-size="9">Python</text>
  <text x="148" y="434" fill="#7a8a96" font-family="'Segoe UI',system-ui,sans-serif" font-size="12" text-anchor="end">steddi-website</text>
  <line x1="160" y1="430" x2="792" y2="430" stroke="#151a20" stroke-width="1"/>
  <circle cx="772" cy="430" r="5" fill="#7DB4E8" opacity="0.9"/>
  <text x="782" y="433.5" fill="#3a4450" font-family="monospace" font-size="9">JavaScript</text>
  <text x="148" y="462" fill="#7a8a96" font-family="'Segoe UI',system-ui,sans-serif" font-size="12" text-anchor="end">steddi</text>
  <line x1="160" y1="458" x2="792" y2="458" stroke="#151a20" stroke-width="1"/>
  <circle cx="772" cy="458" r="5" fill="#A78BFA" opacity="0.9"/>
  <text x="782" y="461.5" fill="#3a4450" font-family="monospace" font-size="9">Swift</text>
  <text x="148" y="490" fill="#7a8a96" font-family="'Segoe UI',system-ui,sans-serif" font-size="12" text-anchor="end">coil</text>
  <line x1="160" y1="486" x2="792" y2="486" stroke="#151a20" stroke-width="1"/>
  <circle cx="731" cy="486" r="5" fill="#4A9A9A" opacity="0.9"/>
  <text x="741" y="489.5" fill="#3a4450" font-family="monospace" font-size="9">Python</text>
  <text x="148" y="518" fill="#7a8a96" font-family="'Segoe UI',system-ui,sans-serif" font-size="12" text-anchor="end">commit-summarizer</text>
  <line x1="160" y1="514" x2="792" y2="514" stroke="#151a20" stroke-width="1"/>
  <circle cx="711" cy="514" r="5" fill="#4A9A9A" opacity="0.9"/>
  <text x="721" y="517.5" fill="#3a4450" font-family="monospace" font-size="9">Python</text>
  <text x="148" y="546" fill="#7a8a96" font-family="'Segoe UI',system-ui,sans-serif" font-size="12" text-anchor="end">xray</text>
  <line x1="160" y1="542" x2="792" y2="542" stroke="#151a20" stroke-width="1"/>
  <circle cx="687" cy="542" r="5" fill="#4A9A9A" opacity="0.9"/>
  <text x="697" y="545.5" fill="#3a4450" font-family="monospace" font-size="9">Python</text>
  <text x="148" y="574" fill="#7a8a96" font-family="'Segoe UI',system-ui,sans-serif" font-size="12" text-anchor="end">sfsm-automation</text>
  <line x1="160" y1="570" x2="792" y2="570" stroke="#151a20" stroke-width="1"/>
  <circle cx="684" cy="570" r="5" fill="#4A9A9A" opacity="0.9"/>
  <text x="694" y="573.5" fill="#3a4450" font-family="monospace" font-size="9">Python</text>
  <text x="148" y="602" fill="#7a8a96" font-family="'Segoe UI',system-ui,sans-serif" font-size="12" text-anchor="end">ronsin-stats</text>
  <line x1="160" y1="598" x2="792" y2="598" stroke="#151a20" stroke-width="1"/>
  <circle cx="640" cy="598" r="5" fill="#4A9A9A" opacity="0.9"/>
  <text x="650" y="601.5" fill="#3a4450" font-family="monospace" font-size="9">Python</text>
  <text x="148" y="630" fill="#3a4450" font-family="'Segoe UI',system-ui,sans-serif" font-size="12" text-anchor="end" font-style="italic">20 private</text>
  <line x1="160" y1="626" x2="792" y2="626" stroke="#151a20" stroke-width="1"/>
  <circle cx="789" cy="626" r="3" fill="#3A4450" opacity="0.7"/>
  <circle cx="782" cy="626" r="3" fill="#3A4450" opacity="0.7"/>
  <circle cx="782" cy="626" r="3" fill="#3A4450" opacity="0.7"/>
  <circle cx="782" cy="626" r="3" fill="#3A4450" opacity="0.7"/>
  <circle cx="775" cy="626" r="3" fill="#3A4450" opacity="0.7"/>
  <circle cx="765" cy="626" r="3" fill="#3A4450" opacity="0.7"/>
  <circle cx="758" cy="626" r="3" fill="#3A4450" opacity="0.7"/>
  <circle cx="758" cy="626" r="3" fill="#3A4450" opacity="0.7"/>
  <circle cx="758" cy="626" r="3" fill="#3A4450" opacity="0.7"/>
  <circle cx="758" cy="626" r="3" fill="#3A4450" opacity="0.7"/>
  <circle cx="758" cy="626" r="3" fill="#3A4450" opacity="0.7"/>
  <circle cx="758" cy="626" r="3" fill="#3A4450" opacity="0.7"/>
  <circle cx="758" cy="626" r="3" fill="#3A4450" opacity="0.7"/>
  <circle cx="758" cy="626" r="3" fill="#3A4450" opacity="0.7"/>
  <circle cx="758" cy="626" r="3" fill="#3A4450" opacity="0.7"/>
  <circle cx="758" cy="626" r="3" fill="#3A4450" opacity="0.7"/>
  <circle cx="751" cy="626" r="3" fill="#3A4450" opacity="0.7"/>
  <circle cx="711" cy="626" r="3" fill="#3A4450" opacity="0.7"/>
  <circle cx="711" cy="626" r="3" fill="#3A4450" opacity="0.7"/>
  <circle cx="708" cy="626" r="3" fill="#3A4450" opacity="0.7"/>
</svg>