<svg width="820" height="300" viewBox="0 0 820 300" xmlns="http://www.w3.org/2000/svg">
  <rect width="820" height="300" rx="10" fill="#0d1117"/>
  <rect x="0" y="0" width="820" height="1" rx="0.5" fill="#4A9A9A" opacity="0.3"/>
  <text x="28" y="28" fill="#556270" font-family="monospace" font-size="10" letter-spacing="2">RECENT ACTIVITY</text>
  <line x1="250" y1="44" x2="250" y2="276" stroke="#1a1f26" stroke-width="1"/>
  <text x="250" y="38" fill="#3a4450" font-family="monospace" font-size="9" text-anchor="middle">DEC</text>
  <line x1="358" y1="44" x2="358" y2="276" stroke="#1a1f26" stroke-width="1"/>
  <text x="358" y="38" fill="#3a4450" font-family="monospace" font-size="9" text-anchor="middle">JAN</text>
  <line x1="466" y1="44" x2="466" y2="276" stroke="#1a1f26" stroke-width="1"/>
  <text x="466" y="38" fill="#3a4450" font-family="monospace" font-size="9" text-anchor="middle">FEB</text>
  <line x1="564" y1="44" x2="564" y2="276" stroke="#1a1f26" stroke-width="1"/>
  <text x="564" y="38" fill="#3a4450" font-family="monospace" font-size="9" text-anchor="middle">MAR</text>
  <line x1="672" y1="44" x2="672" y2="276" stroke="#1a1f26" stroke-width="1"/>
  <text x="672" y="38" fill="#3a4450" font-family="monospace" font-size="9" text-anchor="middle">APR</text>
  <line x1="777" y1="44" x2="777" y2="276" stroke="#1a1f26" stroke-width="1"/>
  <text x="777" y="38" fill="#3a4450" font-family="monospace" font-size="9" text-anchor="middle">MAY</text>
  <line x1="792" y1="44" x2="792" y2="276" stroke="#4A9A9A" stroke-width="1" opacity="0.3"/>
  <text x="148" y="70" fill="#7a8a96" font-family="'Segoe UI',system-ui,sans-serif" font-size="12" text-anchor="end">coil</text>
  <line x1="160" y1="66" x2="792" y2="66" stroke="#151a20" stroke-width="1"/>
  <circle cx="755" cy="66" r="5" fill="#4A9A9A" opacity="0.9"/>
  <text x="765" y="70" fill="#3a4450" font-family="monospace" font-size="9">Python</text>
  <text x="148" y="98" fill="#7a8a96" font-family="'Segoe UI',system-ui,sans-serif" font-size="12" text-anchor="end">Study-Aggregator</text>
  <line x1="160" y1="94" x2="792" y2="94" stroke="#151a20" stroke-width="1"/>
  <circle cx="690" cy="94" r="5" fill="#C97B5E" opacity="0.9"/>
  <text x="700" y="98" fill="#3a4450" font-family="monospace" font-size="9">Rust</text>
  <text x="148" y="126" fill="#7a8a96" font-family="'Segoe UI',system-ui,sans-serif" font-size="12" text-anchor="end">mdview-zig</text>
  <line x1="160" y1="122" x2="792" y2="122" stroke="#151a20" stroke-width="1"/>
  <circle cx="690" cy="122" r="5" fill="#E9A14B" opacity="0.9"/>
  <text x="700" y="126" fill="#3a4450" font-family="monospace" font-size="9">Zig</text>
  <text x="148" y="154" fill="#7a8a96" font-family="'Segoe UI',system-ui,sans-serif" font-size="12" text-anchor="end">commit-summarizer</text>
  <line x1="160" y1="150" x2="792" y2="150" stroke="#151a20" stroke-width="1"/>
  <circle cx="690" cy="150" r="5" fill="#4A9A9A" opacity="0.9"/>
  <text x="700" y="154" fill="#3a4450" font-family="monospace" font-size="9">Python</text>
  <text x="148" y="182" fill="#7a8a96" font-family="'Segoe UI',system-ui,sans-serif" font-size="12" text-anchor="end">obsidian-vault-sy…</text>
  <line x1="160" y1="178" x2="792" y2="178" stroke="#151a20" stroke-width="1"/>
  <circle cx="690" cy="178" r="5" fill="#7DB4E8" opacity="0.9"/>
  <text x="700" y="182" fill="#3a4450" font-family="monospace" font-size="9">TypeScript</text>
  <text x="148" y="210" fill="#7a8a96" font-family="'Segoe UI',system-ui,sans-serif" font-size="12" text-anchor="end">File-Processor</text>
  <line x1="160" y1="206" x2="792" y2="206" stroke="#151a20" stroke-width="1"/>
  <circle cx="690" cy="206" r="5" fill="#4A9A9A" opacity="0.9"/>
  <text x="700" y="210" fill="#3a4450" font-family="monospace" font-size="9">Python</text>
  <text x="148" y="238" fill="#7a8a96" font-family="'Segoe UI',system-ui,sans-serif" font-size="12" text-anchor="end">steddi</text>
  <line x1="160" y1="234" x2="792" y2="234" stroke="#151a20" stroke-width="1"/>
  <circle cx="690" cy="234" r="5" fill="#A78BFA" opacity="0.9"/>
  <text x="700" y="238" fill="#3a4450" font-family="monospace" font-size="9">Swift</text>
  <text x="148" y="266" fill="#3a4450" font-family="'Segoe UI',system-ui,sans-serif" font-size="12" text-anchor="end" font-style="italic">and 39 more</text>
  <line x1="160" y1="262" x2="792" y2="262" stroke="#151a20" stroke-width="1"/>
  <circle cx="690" cy="262" r="3" fill="#3A4450" opacity="0.5"/>
  <circle cx="690" cy="262" r="3" fill="#3A4450" opacity="0.5"/>
  <circle cx="701" cy="262" r="3" fill="#3A4450" opacity="0.5"/>
  <circle cx="690" cy="262" r="3" fill="#3A4450" opacity="0.5"/>
  <circle cx="690" cy="262" r="3" fill="#3A4450" opacity="0.5"/>
  <circle cx="690" cy="262" r="3" fill="#3A4450" opacity="0.5"/>
  <circle cx="753" cy="262" r="3" fill="#3A4450" opacity="0.5"/>
  <circle cx="789" cy="262" r="3" fill="#3A4450" opacity="0.5"/>
  <circle cx="690" cy="262" r="3" fill="#3A4450" opacity="0.5"/>
  <circle cx="690" cy="262" r="3" fill="#3A4450" opacity="0.5"/>
  <circle cx="690" cy="262" r="3" fill="#3A4450" opacity="0.5"/>
  <circle cx="690" cy="262" r="3" fill="#3A4450" opacity="0.5"/>
  <circle cx="608" cy="262" r="3" fill="#3A4450" opacity="0.5"/>
  <circle cx="655" cy="262" r="3" fill="#3A4450" opacity="0.5"/>
  <circle cx="655" cy="262" r="3" fill="#3A4450" opacity="0.5"/>
  <circle cx="608" cy="262" r="3" fill="#3A4450" opacity="0.5"/>
  <circle cx="655" cy="262" r="3" fill="#3A4450" opacity="0.5"/>
  <circle cx="655" cy="262" r="3" fill="#3A4450" opacity="0.5"/>
  <circle cx="655" cy="262" r="3" fill="#3A4450" opacity="0.5"/>
  <circle cx="655" cy="262" r="3" fill="#3A4450" opacity="0.5"/>
  <circle cx="655" cy="262" r="3" fill="#3A4450" opacity="0.5"/>
  <circle cx="655" cy="262" r="3" fill="#3A4450" opacity="0.5"/>
  <circle cx="655" cy="262" r="3" fill="#3A4450" opacity="0.5"/>
  <circle cx="783" cy="262" r="3" fill="#3A4450" opacity="0.5"/>
  <circle cx="606" cy="262" r="3" fill="#3A4450" opacity="0.5"/>
  <circle cx="791" cy="262" r="3" fill="#3A4450" opacity="0.5"/>
  <circle cx="784" cy="262" r="3" fill="#3A4450" opacity="0.5"/>
  <circle cx="751" cy="262" r="3" fill="#3A4450" opacity="0.5"/>
  <circle cx="676" cy="262" r="3" fill="#3A4450" opacity="0.5"/>
  <circle cx="679" cy="262" r="3" fill="#3A4450" opacity="0.5"/>
  <circle cx="745" cy="262" r="3" fill="#3A4450" opacity="0.5"/>
  <circle cx="783" cy="262" r="3" fill="#3A4450" opacity="0.5"/>
  <circle cx="694" cy="262" r="3" fill="#3A4450" opacity="0.5"/>
  <circle cx="703" cy="262" r="3" fill="#3A4450" opacity="0.5"/>
  <circle cx="784" cy="262" r="3" fill="#3A4450" opacity="0.5"/>
  <circle cx="703" cy="262" r="3" fill="#3A4450" opacity="0.5"/>
  <circle cx="757" cy="262" r="3" fill="#3A4450" opacity="0.5"/>
  <circle cx="791" cy="262" r="3" fill="#3A4450" opacity="0.5"/>
  <circle cx="769" cy="262" r="3" fill="#3A4450" opacity="0.5"/>
</svg>
