<svg width="820" height="300" viewBox="0 0 820 300" xmlns="http://www.w3.org/2000/svg">
  <rect width="820" height="300" rx="10" fill="#0d1117"/>
  <rect x="0" y="0" width="820" height="1" rx="0.5" fill="#4A9A9A" opacity="0.3"/>
  <text x="28" y="28" fill="#556270" font-family="monospace" font-size="10" letter-spacing="2">RECENT ACTIVITY</text>
  <line x1="260" y1="44" x2="260" y2="276" stroke="#1a1f26" stroke-width="1"/>
  <text x="260" y="38" fill="#3a4450" font-family="monospace" font-size="9" text-anchor="middle">DEC</text>
  <line x1="368" y1="44" x2="368" y2="276" stroke="#1a1f26" stroke-width="1"/>
  <text x="368" y="38" fill="#3a4450" font-family="monospace" font-size="9" text-anchor="middle">JAN</text>
  <line x1="477" y1="44" x2="477" y2="276" stroke="#1a1f26" stroke-width="1"/>
  <text x="477" y="38" fill="#3a4450" font-family="monospace" font-size="9" text-anchor="middle">FEB</text>
  <line x1="574" y1="44" x2="574" y2="276" stroke="#1a1f26" stroke-width="1"/>
  <text x="574" y="38" fill="#3a4450" font-family="monospace" font-size="9" text-anchor="middle">MAR</text>
  <line x1="683" y1="44" x2="683" y2="276" stroke="#1a1f26" stroke-width="1"/>
  <text x="683" y="38" fill="#3a4450" font-family="monospace" font-size="9" text-anchor="middle">APR</text>
  <line x1="787" y1="44" x2="787" y2="276" stroke="#1a1f26" stroke-width="1"/>
  <text x="787" y="38" fill="#3a4450" font-family="monospace" font-size="9" text-anchor="middle">MAY</text>
  <line x1="792" y1="44" x2="792" y2="276" stroke="#4A9A9A" stroke-width="1" opacity="0.3"/>
  <text x="148" y="70" fill="#7a8a96" font-family="'Segoe UI',system-ui,sans-serif" font-size="12" text-anchor="end">coil</text>
  <line x1="160" y1="66" x2="792" y2="66" stroke="#151a20" stroke-width="1"/>
  <circle cx="766" cy="66" r="5" fill="#4A9A9A" opacity="0.9"/>
  <text x="776" y="70" fill="#3a4450" font-family="monospace" font-size="9">Python</text>
  <text x="148" y="98" fill="#7a8a96" font-family="'Segoe UI',system-ui,sans-serif" font-size="12" text-anchor="end">Study-Aggregator</text>
  <line x1="160" y1="94" x2="792" y2="94" stroke="#151a20" stroke-width="1"/>
  <circle cx="701" cy="94" r="5" fill="#C97B5E" opacity="0.9"/>
  <text x="711" y="98" fill="#3a4450" font-family="monospace" font-size="9">Rust</text>
  <text x="148" y="126" fill="#7a8a96" font-family="'Segoe UI',system-ui,sans-serif" font-size="12" text-anchor="end">mdview-zig</text>
  <line x1="160" y1="122" x2="792" y2="122" stroke="#151a20" stroke-width="1"/>
  <circle cx="701" cy="122" r="5" fill="#E9A14B" opacity="0.9"/>
  <text x="711" y="126" fill="#3a4450" font-family="monospace" font-size="9">Zig</text>
  <text x="148" y="154" fill="#7a8a96" font-family="'Segoe UI',system-ui,sans-serif" font-size="12" text-anchor="end">commit-summarizer</text>
  <line x1="160" y1="150" x2="792" y2="150" stroke="#151a20" stroke-width="1"/>
  <circle cx="701" cy="150" r="5" fill="#4A9A9A" opacity="0.9"/>
  <text x="711" y="154" fill="#3a4450" font-family="monospace" font-size="9">Python</text>
  <text x="148" y="182" fill="#7a8a96" font-family="'Segoe UI',system-ui,sans-serif" font-size="12" text-anchor="end">obsidian-vault-sy…</text>
  <line x1="160" y1="178" x2="792" y2="178" stroke="#151a20" stroke-width="1"/>
  <circle cx="701" cy="178" r="5" fill="#7DB4E8" opacity="0.9"/>
  <text x="711" y="182" fill="#3a4450" font-family="monospace" font-size="9">TypeScript</text>
  <text x="148" y="210" fill="#7a8a96" font-family="'Segoe UI',system-ui,sans-serif" font-size="12" text-anchor="end">File-Processor</text>
  <line x1="160" y1="206" x2="792" y2="206" stroke="#151a20" stroke-width="1"/>
  <circle cx="701" cy="206" r="5" fill="#4A9A9A" opacity="0.9"/>
  <text x="711" y="210" fill="#3a4450" font-family="monospace" font-size="9">Python</text>
  <text x="148" y="238" fill="#7a8a96" font-family="'Segoe UI',system-ui,sans-serif" font-size="12" text-anchor="end">steddi</text>
  <line x1="160" y1="234" x2="792" y2="234" stroke="#151a20" stroke-width="1"/>
  <circle cx="701" cy="234" r="5" fill="#A78BFA" opacity="0.9"/>
  <text x="711" y="238" fill="#3a4450" font-family="monospace" font-size="9">Swift</text>
  <text x="148" y="266" fill="#3a4450" font-family="'Segoe UI',system-ui,sans-serif" font-size="12" text-anchor="end" font-style="italic">and 39 more</text>
  <line x1="160" y1="262" x2="792" y2="262" stroke="#151a20" stroke-width="1"/>
  <circle cx="701" cy="262" r="3" fill="#3A4450" opacity="0.5"/>
  <circle cx="701" cy="262" r="3" fill="#3A4450" opacity="0.5"/>
  <circle cx="711" cy="262" r="3" fill="#3A4450" opacity="0.5"/>
  <circle cx="701" cy="262" r="3" fill="#3A4450" opacity="0.5"/>
  <circle cx="701" cy="262" r="3" fill="#3A4450" opacity="0.5"/>
  <circle cx="701" cy="262" r="3" fill="#3A4450" opacity="0.5"/>
  <circle cx="763" cy="262" r="3" fill="#3A4450" opacity="0.5"/>
  <circle cx="791" cy="262" r="3" fill="#3A4450" opacity="0.5"/>
  <circle cx="701" cy="262" r="3" fill="#3A4450" opacity="0.5"/>
  <circle cx="701" cy="262" r="3" fill="#3A4450" opacity="0.5"/>
  <circle cx="701" cy="262" r="3" fill="#3A4450" opacity="0.5"/>
  <circle cx="701" cy="262" r="3" fill="#3A4450" opacity="0.5"/>
  <circle cx="619" cy="262" r="3" fill="#3A4450" opacity="0.5"/>
  <circle cx="666" cy="262" r="3" fill="#3A4450" opacity="0.5"/>
  <circle cx="666" cy="262" r="3" fill="#3A4450" opacity="0.5"/>
  <circle cx="619" cy="262" r="3" fill="#3A4450" opacity="0.5"/>
  <circle cx="666" cy="262" r="3" fill="#3A4450" opacity="0.5"/>
  <circle cx="666" cy="262" r="3" fill="#3A4450" opacity="0.5"/>
  <circle cx="666" cy="262" r="3" fill="#3A4450" opacity="0.5"/>
  <circle cx="666" cy="262" r="3" fill="#3A4450" opacity="0.5"/>
  <circle cx="666" cy="262" r="3" fill="#3A4450" opacity="0.5"/>
  <circle cx="666" cy="262" r="3" fill="#3A4450" opacity="0.5"/>
  <circle cx="666" cy="262" r="3" fill="#3A4450" opacity="0.5"/>
  <circle cx="792" cy="262" r="3" fill="#3A4450" opacity="0.5"/>
  <circle cx="616" cy="262" r="3" fill="#3A4450" opacity="0.5"/>
  <circle cx="792" cy="262" r="3" fill="#3A4450" opacity="0.5"/>
  <circle cx="792" cy="262" r="3" fill="#3A4450" opacity="0.5"/>
  <circle cx="762" cy="262" r="3" fill="#3A4450" opacity="0.5"/>
  <circle cx="686" cy="262" r="3" fill="#3A4450" opacity="0.5"/>
  <circle cx="690" cy="262" r="3" fill="#3A4450" opacity="0.5"/>
  <circle cx="755" cy="262" r="3" fill="#3A4450" opacity="0.5"/>
  <circle cx="792" cy="262" r="3" fill="#3A4450" opacity="0.5"/>
  <circle cx="705" cy="262" r="3" fill="#3A4450" opacity="0.5"/>
  <circle cx="714" cy="262" r="3" fill="#3A4450" opacity="0.5"/>
  <circle cx="792" cy="262" r="3" fill="#3A4450" opacity="0.5"/>
  <circle cx="714" cy="262" r="3" fill="#3A4450" opacity="0.5"/>
  <circle cx="767" cy="262" r="3" fill="#3A4450" opacity="0.5"/>
  <circle cx="792" cy="262" r="3" fill="#3A4450" opacity="0.5"/>
  <circle cx="780" cy="262" r="3" fill="#3A4450" opacity="0.5"/>
</svg>
