<svg width="820" height="300" viewBox="0 0 820 300" xmlns="http://www.w3.org/2000/svg">
  <rect width="820" height="300" rx="10" fill="#0d1117"/>
  <rect x="0" y="0" width="820" height="1" rx="0.5" fill="#4A9A9A" opacity="0.3"/>
  <text x="28" y="28" fill="#556270" font-family="monospace" font-size="10" letter-spacing="2">RECENT ACTIVITY</text>
  <line x1="257" y1="44" x2="257" y2="276" stroke="#1a1f26" stroke-width="1"/>
  <text x="257" y="38" fill="#3a4450" font-family="monospace" font-size="9" text-anchor="middle">DEC</text>
  <line x1="365" y1="44" x2="365" y2="276" stroke="#1a1f26" stroke-width="1"/>
  <text x="365" y="38" fill="#3a4450" font-family="monospace" font-size="9" text-anchor="middle">JAN</text>
  <line x1="473" y1="44" x2="473" y2="276" stroke="#1a1f26" stroke-width="1"/>
  <text x="473" y="38" fill="#3a4450" font-family="monospace" font-size="9" text-anchor="middle">FEB</text>
  <line x1="571" y1="44" x2="571" y2="276" stroke="#1a1f26" stroke-width="1"/>
  <text x="571" y="38" fill="#3a4450" font-family="monospace" font-size="9" text-anchor="middle">MAR</text>
  <line x1="679" y1="44" x2="679" y2="276" stroke="#1a1f26" stroke-width="1"/>
  <text x="679" y="38" fill="#3a4450" font-family="monospace" font-size="9" text-anchor="middle">APR</text>
  <line x1="784" y1="44" x2="784" y2="276" stroke="#1a1f26" stroke-width="1"/>
  <text x="784" y="38" fill="#3a4450" font-family="monospace" font-size="9" text-anchor="middle">MAY</text>
  <line x1="792" y1="44" x2="792" y2="276" stroke="#4A9A9A" stroke-width="1" opacity="0.3"/>
  <text x="148" y="70" fill="#7a8a96" font-family="'Segoe UI',system-ui,sans-serif" font-size="12" text-anchor="end">coil</text>
  <line x1="160" y1="66" x2="792" y2="66" stroke="#151a20" stroke-width="1"/>
  <circle cx="762" cy="66" r="5" fill="#4A9A9A" opacity="0.9"/>
  <text x="772" y="70" fill="#3a4450" font-family="monospace" font-size="9">Python</text>
  <text x="148" y="98" fill="#7a8a96" font-family="'Segoe UI',system-ui,sans-serif" font-size="12" text-anchor="end">Study-Aggregator</text>
  <line x1="160" y1="94" x2="792" y2="94" stroke="#151a20" stroke-width="1"/>
  <circle cx="697" cy="94" r="5" fill="#C97B5E" opacity="0.9"/>
  <text x="707" y="98" fill="#3a4450" font-family="monospace" font-size="9">Rust</text>
  <text x="148" y="126" fill="#7a8a96" font-family="'Segoe UI',system-ui,sans-serif" font-size="12" text-anchor="end">mdview-zig</text>
  <line x1="160" y1="122" x2="792" y2="122" stroke="#151a20" stroke-width="1"/>
  <circle cx="697" cy="122" r="5" fill="#E9A14B" opacity="0.9"/>
  <text x="707" y="126" fill="#3a4450" font-family="monospace" font-size="9">Zig</text>
  <text x="148" y="154" fill="#7a8a96" font-family="'Segoe UI',system-ui,sans-serif" font-size="12" text-anchor="end">commit-summarizer</text>
  <line x1="160" y1="150" x2="792" y2="150" stroke="#151a20" stroke-width="1"/>
  <circle cx="697" cy="150" r="5" fill="#4A9A9A" opacity="0.9"/>
  <text x="707" y="154" fill="#3a4450" font-family="monospace" font-size="9">Python</text>
  <text x="148" y="182" fill="#7a8a96" font-family="'Segoe UI',system-ui,sans-serif" font-size="12" text-anchor="end">obsidian-vault-sy…</text>
  <line x1="160" y1="178" x2="792" y2="178" stroke="#151a20" stroke-width="1"/>
  <circle cx="697" cy="178" r="5" fill="#7DB4E8" opacity="0.9"/>
  <text x="707" y="182" fill="#3a4450" font-family="monospace" font-size="9">TypeScript</text>
  <text x="148" y="210" fill="#7a8a96" font-family="'Segoe UI',system-ui,sans-serif" font-size="12" text-anchor="end">File-Processor</text>
  <line x1="160" y1="206" x2="792" y2="206" stroke="#151a20" stroke-width="1"/>
  <circle cx="697" cy="206" r="5" fill="#4A9A9A" opacity="0.9"/>
  <text x="707" y="210" fill="#3a4450" font-family="monospace" font-size="9">Python</text>
  <text x="148" y="238" fill="#7a8a96" font-family="'Segoe UI',system-ui,sans-serif" font-size="12" text-anchor="end">steddi</text>
  <line x1="160" y1="234" x2="792" y2="234" stroke="#151a20" stroke-width="1"/>
  <circle cx="697" cy="234" r="5" fill="#A78BFA" opacity="0.9"/>
  <text x="707" y="238" fill="#3a4450" font-family="monospace" font-size="9">Swift</text>
  <text x="148" y="266" fill="#3a4450" font-family="'Segoe UI',system-ui,sans-serif" font-size="12" text-anchor="end" font-style="italic">and 39 more</text>
  <line x1="160" y1="262" x2="792" y2="262" stroke="#151a20" stroke-width="1"/>
  <circle cx="697" cy="262" r="3" fill="#3A4450" opacity="0.5"/>
  <circle cx="697" cy="262" r="3" fill="#3A4450" opacity="0.5"/>
  <circle cx="708" cy="262" r="3" fill="#3A4450" opacity="0.5"/>
  <circle cx="697" cy="262" r="3" fill="#3A4450" opacity="0.5"/>
  <circle cx="697" cy="262" r="3" fill="#3A4450" opacity="0.5"/>
  <circle cx="697" cy="262" r="3" fill="#3A4450" opacity="0.5"/>
  <circle cx="760" cy="262" r="3" fill="#3A4450" opacity="0.5"/>
  <circle cx="788" cy="262" r="3" fill="#3A4450" opacity="0.5"/>
  <circle cx="697" cy="262" r="3" fill="#3A4450" opacity="0.5"/>
  <circle cx="697" cy="262" r="3" fill="#3A4450" opacity="0.5"/>
  <circle cx="697" cy="262" r="3" fill="#3A4450" opacity="0.5"/>
  <circle cx="697" cy="262" r="3" fill="#3A4450" opacity="0.5"/>
  <circle cx="615" cy="262" r="3" fill="#3A4450" opacity="0.5"/>
  <circle cx="662" cy="262" r="3" fill="#3A4450" opacity="0.5"/>
  <circle cx="662" cy="262" r="3" fill="#3A4450" opacity="0.5"/>
  <circle cx="615" cy="262" r="3" fill="#3A4450" opacity="0.5"/>
  <circle cx="662" cy="262" r="3" fill="#3A4450" opacity="0.5"/>
  <circle cx="662" cy="262" r="3" fill="#3A4450" opacity="0.5"/>
  <circle cx="662" cy="262" r="3" fill="#3A4450" opacity="0.5"/>
  <circle cx="662" cy="262" r="3" fill="#3A4450" opacity="0.5"/>
  <circle cx="662" cy="262" r="3" fill="#3A4450" opacity="0.5"/>
  <circle cx="662" cy="262" r="3" fill="#3A4450" opacity="0.5"/>
  <circle cx="662" cy="262" r="3" fill="#3A4450" opacity="0.5"/>
  <circle cx="790" cy="262" r="3" fill="#3A4450" opacity="0.5"/>
  <circle cx="613" cy="262" r="3" fill="#3A4450" opacity="0.5"/>
  <circle cx="788" cy="262" r="3" fill="#3A4450" opacity="0.5"/>
  <circle cx="791" cy="262" r="3" fill="#3A4450" opacity="0.5"/>
  <circle cx="758" cy="262" r="3" fill="#3A4450" opacity="0.5"/>
  <circle cx="683" cy="262" r="3" fill="#3A4450" opacity="0.5"/>
  <circle cx="687" cy="262" r="3" fill="#3A4450" opacity="0.5"/>
  <circle cx="752" cy="262" r="3" fill="#3A4450" opacity="0.5"/>
  <circle cx="790" cy="262" r="3" fill="#3A4450" opacity="0.5"/>
  <circle cx="701" cy="262" r="3" fill="#3A4450" opacity="0.5"/>
  <circle cx="710" cy="262" r="3" fill="#3A4450" opacity="0.5"/>
  <circle cx="791" cy="262" r="3" fill="#3A4450" opacity="0.5"/>
  <circle cx="710" cy="262" r="3" fill="#3A4450" opacity="0.5"/>
  <circle cx="764" cy="262" r="3" fill="#3A4450" opacity="0.5"/>
  <circle cx="791" cy="262" r="3" fill="#3A4450" opacity="0.5"/>
  <circle cx="776" cy="262" r="3" fill="#3A4450" opacity="0.5"/>
</svg>
